<svg xmlns="http://www.w3.org/2000/svg" width="663.867" height="626.66" viewBox="0 0 663.867 626.66">
  <g id="astronaut" transform="translate(-1 -1)">
    <path id="Path_1" data-name="Path 1" d="M36,49H56.215V69.215H36Z" transform="translate(318.76 437.156)" fill="#40407a"/>
    <path id="Path_2" data-name="Path 2" d="M34,55H54.215V75.215H34Z" transform="translate(300.545 491.801)" fill="#40407a"/>
    <path id="Path_3" data-name="Path 3" d="M39,52H59.215V72.215H39Z" transform="translate(346.082 464.478)" fill="#40407a"/>
    <path id="Path_4" data-name="Path 4" d="M40,58H60.215V78.215H40Z" transform="translate(355.189 519.123)" fill="#40407a"/>
    <path id="Path_5" data-name="Path 5" d="M46,55H66.215V75.215H46Z" transform="translate(409.834 491.801)" fill="#40407a"/>
    <path id="Path_6" data-name="Path 6" d="M52,57H72.215V77.215H52Z" transform="translate(464.478 510.015)" fill="#40407a"/>
    <path id="Path_7" data-name="Path 7" d="M30,58H50.215V78.215H30Z" transform="translate(264.115 519.123)" fill="#40407a"/>
    <path id="Path_8" data-name="Path 8" d="M80.752,146.5A70.752,70.752,0,1,0,10,75.752,70.83,70.83,0,0,0,80.752,146.5Zm0-121.289A50.537,50.537,0,1,1,30.215,75.752,50.594,50.594,0,0,1,80.752,25.215Z" transform="translate(81.967 36.43)" fill="#40407a"/>
    <path id="Path_9" data-name="Path 9" d="M42.322,128.074h40.43a30.359,30.359,0,0,0,30.322-30.322V57.322A30.359,30.359,0,0,0,82.752,27H42.322A30.359,30.359,0,0,0,12,57.322v40.43A30.359,30.359,0,0,0,42.322,128.074ZM32.215,57.322A10.124,10.124,0,0,1,42.322,47.215h40.43A10.124,10.124,0,0,1,92.859,57.322v40.43a10.124,10.124,0,0,1-10.107,10.107H42.322A10.124,10.124,0,0,1,32.215,97.752Z" transform="translate(100.182 236.793)" fill="#40407a"/>
    <path id="Path_10" data-name="Path 10" d="M16,31H36.215V51.215H16Z" transform="translate(136.611 273.223)" fill="#40407a"/>
    <path id="Path_11" data-name="Path 11" d="M516.478,294.115H664.867V112.182H546.8V61.645a30.359,30.359,0,0,0-30.322-30.322H425.512V21.215A20.235,20.235,0,0,0,405.3,1H385.082a20.235,20.235,0,0,0-20.215,20.215V182.934H304.223V122.289a50.617,50.617,0,0,0-37.337-48.6,110.981,110.981,0,0,0-208.334,0,50.617,50.617,0,0,0-37.337,48.6V230.024A111.063,111.063,0,0,0,1,294.115v70.752a60.706,60.706,0,0,0,60.644,60.645H71.752V562.366a60.472,60.472,0,0,0-20.215,45.079V627.66H617.552V604.079l-44.958-59.937a69.446,69.446,0,0,0-55.308-27.664h-57.7a10.129,10.129,0,0,1-9.268-6.054l-10.178-23.267a68.822,68.822,0,0,0-14.625-21.1v-252.8h60.645v50.537A30.359,30.359,0,0,0,516.478,294.115ZM646.113,132.4V273.9H516.478a10.107,10.107,0,1,1,0-20.215A30.359,30.359,0,0,0,546.8,223.363V132.4ZM405.3,21.215V451.932a68.842,68.842,0,0,0-20.215-5.589V21.215ZM213.256,546.8a60.334,60.334,0,0,0-40.43,15.565V522.725L233.471,492.4v57.936A60.4,60.4,0,0,0,213.256,546.8Zm20.215-77-60.645,30.322V482.3l60.645-30.322Zm0-40.43-60.645,30.322V405.3h60.645Zm-80.859,30.322L91.967,429.373V405.3h60.645Zm-60.645-7.722L152.611,482.3v17.829L91.967,469.8Zm161.719-26.461h10.107a40.47,40.47,0,0,0,40.43-40.43V273.9h60.645V446.272A67.536,67.536,0,0,0,309.741,487.3L300.1,510.272a10.079,10.079,0,0,1-9.319,6.206H253.685Zm0-20.215V273.9h30.322V385.082A20.235,20.235,0,0,1,263.793,405.3ZM364.867,253.685H344.652V203.148h20.215Zm-80.859-131.4v60.645H248.419a109.645,109.645,0,0,0,24.632-83.9A30.378,30.378,0,0,1,284.008,122.289ZM162.719,21.215a90.967,90.967,0,1,1-90.967,90.967A91.078,91.078,0,0,1,162.719,21.215ZM52.386,99.032A109.349,109.349,0,0,0,81.01,187.32a110.18,110.18,0,0,0-39.581,20.9V122.289A30.378,30.378,0,0,1,52.386,99.032Zm47.788,105.006a110.713,110.713,0,0,0,126.272-.889h97.991v50.537H233.471v131.4H91.967v-131.4H71.752v90.967H21.215V294.115a90.378,90.378,0,0,1,78.959-90.077ZM61.645,405.3a40.47,40.47,0,0,1-40.43-40.43H71.752V405.3ZM91.967,492.4l60.645,30.322v39.641a60.051,60.051,0,0,0-60.645-12.028ZM71.752,607.445a40.43,40.43,0,1,1,80.859,0Zm101.074,0a40.43,40.43,0,1,1,80.859,0Zm286.758-70.752h57.7a49.163,49.163,0,0,1,39.146,19.578l38.378,51.174H273.9a60.472,60.472,0,0,0-20.215-45.079V536.693H290.78a30.285,30.285,0,0,0,27.967-18.588l9.642-22.984a47.471,47.471,0,0,1,43.886-29.18h4.508a48.951,48.951,0,0,1,44.837,29.322L431.8,518.53A30.342,30.342,0,0,0,459.584,536.693ZM425.512,51.537h90.967a10.124,10.124,0,0,1,10.107,10.107V194.9a29.981,29.981,0,0,0-10.107-1.86H425.512Zm90.967,161.719a10.107,10.107,0,0,1,0,20.215,29.981,29.981,0,0,0-10.107,1.86V213.256Z" transform="translate(0 0)" fill="#40407a"/>
    <path id="Path_12" data-name="Path 12" d="M45,8H65.215V28.215H45Z" transform="translate(400.726 63.752)" fill="#40407a"/>
    <path id="Path_13" data-name="Path 13" d="M45,16H65.215V36.215H45Z" transform="translate(400.726 136.611)" fill="#40407a"/>
    <path id="Path_14" data-name="Path 14" d="M45,12H65.215V32.215H45Z" transform="translate(400.726 100.182)" fill="#40407a"/>
  </g>
</svg>
