<svg id="Camada_1" data-name="Camada 1" xmlns="http://www.w3.org/2000/svg" viewBox="0 0 333.47 859.05"><defs><style>.cls-1{fill:#333;}.cls-1,.cls-10,.cls-11,.cls-12,.cls-13,.cls-14,.cls-15,.cls-17,.cls-2,.cls-22,.cls-3,.cls-4,.cls-5,.cls-6,.cls-8,.cls-9{fill-rule:evenodd;}.cls-2{fill:#4d4d4d;}.cls-3{fill:#4b6e85;}.cls-4{fill:#e8c5a0;}.cls-5{fill:#ffddb8;}.cls-20,.cls-6{fill:#fff;}.cls-7{fill:none;stroke:#2b4454;stroke-miterlimit:22.93;stroke-width:0.57px;}.cls-8{fill:#b3987c;}.cls-9{fill:#7d5f54;}.cls-10{fill:#287a7a;}.cls-11{fill:#c3e8dd;}.cls-12{fill:#2b4454;}.cls-13{fill:#a0c3db;}.cls-14{fill:#789bb3;}.cls-15,.cls-16{fill:#e6e6e6;}.cls-17{fill:#f0f0f0;}.cls-18{fill:#79b1c4;}.cls-19{fill:#9bcbdb;}.cls-21{fill:#e35d6f;}.cls-22{fill:#a88072;}</style></defs><title>login_doctor_image</title><path class="cls-1" d="M1631.55,918c-3.13,6.13-4.68,23.71-2.67,32.58s2.27,9.75,7.86,11.7,7.41,2,8.2-.53,10.5,5.38,16.55,8c10.44,4.45,52.79,15.54,60.23-1.52,2.4-5.51-8.77-16.28-16.44-21.92-13.46-9.89-19.18-10.78-29.63-26.53-4.3-6.48-12.16-5.65-16.87-2.72s-8,16.53-15.33,13S1633.47,915.46,1631.55,918Z" transform="translate(-1490.46 -118.32)"/><path class="cls-1" d="M1598.21,918c3.13,6.13,4.68,23.71,2.67,32.58s-2.27,9.75-7.86,11.7-7.41,2-8.2-.53-10.5,5.38-16.55,8c-10.44,4.45-52.79,15.54-60.23-1.52-2.4-5.51,8.77-16.28,16.45-21.92,13.45-9.89,19.17-10.78,29.62-26.53,4.3-6.48,12.16-5.65,16.87-2.72s8,16.53,15.33,13S1596.29,915.46,1598.21,918Z" transform="translate(-1490.46 -118.32)"/><path class="cls-2" d="M1683.44,509.82H1545.09q-1.75,211.56-3.5,423.12c20.19,6.53,40.39,6.28,60.58,0l12.07-301,12.07,301a102,102,0,0,0,61.86,0Z" transform="translate(-1490.46 -118.32)"/><path class="cls-3" d="M1509.66,351.66c24.24,5.56,34.2,25.26,32.18,146.83-.3,17.65-3.38,60.74,7.22,63.08,38.38,8.48,93.39,8.5,130.34-3.25,9.22-2.94,6-42.78,6-59.83-.07-123.06,12.26-139.17,30-157.82C1666.83,294.92,1519.87,296.38,1509.66,351.66Z" transform="translate(-1490.46 -118.32)"/><path class="cls-4" d="M1642.07,262.15H1587v47c0,28.32,55.07,27.53,55.07,0Z" transform="translate(-1490.46 -118.32)"/><path class="cls-5" d="M1614.05,145.08c-115.8,0-68.86,153,0,153S1729.85,145.08,1614.05,145.08Z" transform="translate(-1490.46 -118.32)"/><path class="cls-5" d="M1539.64,197.71c-4.21.94-5.87,9.61-3.7,19.37s7.35,16.91,11.56,16,5.88-9.61,3.7-19.37S1543.86,196.78,1539.64,197.71Z" transform="translate(-1490.46 -118.32)"/><path class="cls-5" d="M1688.39,197.71c4.22.94,5.87,9.61,3.7,19.37s-7.35,16.91-11.56,16-5.87-9.61-3.7-19.37S1684.18,196.78,1688.39,197.71Z" transform="translate(-1490.46 -118.32)"/><path class="cls-6" d="M1670.94,354.8c8.72,37.11,25,91.12,36.38,125.6,13.07-.2,25.28-3.85,38.35-4-1.82-27.89-17-103.54-28.48-132.87C1702.66,306.34,1664.32,328.33,1670.94,354.8Z" transform="translate(-1490.46 -118.32)"/><line class="cls-7" x1="123.41" y1="238.98" x2="123.41" y2="448.67"/><path class="cls-1" d="M1639.16,222.88c3.32,0,6-4.34,6-9.66s-2.71-9.65-6-9.65-6,4.34-6,9.65S1635.84,222.88,1639.16,222.88Z" transform="translate(-1490.46 -118.32)"/><path class="cls-1" d="M1589,222.88c3.32,0,6-4.34,6-9.66s-2.71-9.65-6-9.65-6,4.34-6,9.65S1585.63,222.88,1589,222.88Z" transform="translate(-1490.46 -118.32)"/><path class="cls-8" d="M1584.48,255.92c14.34,23.49,45,23.81,59.37,0A177.12,177.12,0,0,1,1584.48,255.92Z" transform="translate(-1490.46 -118.32)"/><path class="cls-6" d="M1596.73,258.41a22.44,22.44,0,0,0,34.65,0A157.28,157.28,0,0,1,1596.73,258.41Z" transform="translate(-1490.46 -118.32)"/><path class="cls-8" d="M1603.85,238.67a10.88,10.88,0,0,0,20.41,0,17,17,0,0,1-20.41,0Z" transform="translate(-1490.46 -118.32)"/><path class="cls-9" d="M1574.7,197.86c5-8,19.54-7.12,25.19.31,2.3,3-.56,4.15-3.63,2.3-6.07-3.68-11.74-7.39-20.14-1.45C1573.89,200.59,1573.26,200.15,1574.7,197.86Z" transform="translate(-1490.46 -118.32)"/><path class="cls-9" d="M1653.41,197.86c-5.05-8-19.54-7.12-25.19.31-2.3,3,.56,4.15,3.63,2.3,6.07-3.68,11.74-7.39,20.14-1.45C1654.22,200.59,1654.85,200.15,1653.41,197.86Z" transform="translate(-1490.46 -118.32)"/><path class="cls-10" d="M1615.1,207.34c3.62.07,18.56-3.64,29.14-4.45s26.14,1.21,29,1.21c3.56,0,3.34,1.22,3.48,3.51s.56,1.16-1.35,1.75c-2.61.81-3.46,7-5.17,15.77-1.57,8-5.37,14.34-21.75,15.49-16.07,1.13-21.45-8.49-23.19-11.59-3.11-5.52-2.15-13.14-10.27-13.14s-7.31,7.48-10.41,13c-1.74,3.1-7,12.85-23,11.72-16.38-1.15-20.18-7.48-21.75-15.49-1.71-8.8-1.94-15-4.55-15.77-1.92-.59-2.11.54-2-1.75s0-3.51,3.48-3.51c2.85,0,18.41-2,29-1.21,9.47.72,20.85,4.27,29.38,4.45Zm49.72-.41c-4.78-2.62-32.78-3.52-39,4.18-5.22,6.47,3.19,22.24,11.16,25.74,7.74,3.4,23.63,1.48,28-5.79,4.19-7,5.23-21.18-.15-24.13Zm-99.68,0c-5.38,2.95-4.34,17.12-.15,24.13,4.35,7.27,20.24,9.19,28,5.79,8-3.5,16.38-19.27,11.16-25.74C1597.92,203.41,1569.92,204.31,1565.14,206.93Z" transform="translate(-1490.46 -118.32)"/><path class="cls-9" d="M1684.17,213.48c3-15.63,8.82-53.71,1.38-57.32s-14.87-5.4-9.92-11.41-8.67-26.43-33.46-26.43-61.37,12.61-78.1,16.82-15.76,3-20.72.6,7.44,15.62-1.24,15.62,2,41.68,3.71,57.87,5.65,15.93,8.24,0c6.07-37.38,7.32-47.07,26.21-40.94,21.19,6.87,46.57,4.88,63.87,1.94,29.86-5.09,30.8,22,32.69,43.45S1681.66,226.35,1684.17,213.48Z" transform="translate(-1490.46 -118.32)"/><path class="cls-11" d="M1615.51,375.17a2.56,2.56,0,1,0-2.55-2.56A2.56,2.56,0,0,0,1615.51,375.17Z" transform="translate(-1490.46 -118.32)"/><path class="cls-12" d="M1614.53,329.12l21.36,39.67,24.32-50.65-18.09-12.25S1632.92,327.34,1614.53,329.12Z" transform="translate(-1490.46 -118.32)"/><path class="cls-12" d="M1614.53,329.12l-21.36,39.67-24.32-50.65,18.09-12.25S1596.14,327.34,1614.53,329.12Z" transform="translate(-1490.46 -118.32)"/><polygon class="cls-13" points="137.2 218.56 129.03 240.88 117.78 240.88 109.43 218.38 124.31 210.57 137.2 218.56"/><polygon class="cls-13" points="129.03 240.88 143.51 375.55 123.84 404.38 103.3 375.55 117.78 240.88 129.03 240.88"/><path class="cls-14" d="M1608.24,359.2h11.25c-1.38,1.24-1.47,14.59-3.13,14.59s-.52-9-2.09-8.92-1.5,9.38-3.06,9.29S1610.44,359.25,1608.24,359.2Z" transform="translate(-1490.46 -118.32)"/><path class="cls-3" d="M1614.53,329.12l21.36,32.41,24.32-43.39-18.09-12.25S1632.92,327.34,1614.53,329.12Z" transform="translate(-1490.46 -118.32)"/><path class="cls-3" d="M1614.53,329.12l-21.36,32.41-24.32-43.39,18.09-12.25S1596.14,327.34,1614.53,329.12Z" transform="translate(-1490.46 -118.32)"/><path class="cls-12" d="M1687.38,440.91c1.62-18.68,2.88-69.31,2.88-75C1694.72,396.4,1695.5,422.23,1687.38,440.91Z" transform="translate(-1490.46 -118.32)"/><path class="cls-6" d="M1534.42,708.68c-9-109.47,22.52-263.66-14.42-376.88,10.63-18.49,41.89-23.7,66.28-25.91-12.51,80.09-6.41,339.61-6.44,401C1565.17,713.59,1550.42,714,1534.42,708.68Z" transform="translate(-1490.46 -118.32)"/><path class="cls-6" d="M1695,708.68c9-109.47-21.42-263,15.52-376.26-10.63-18.49-43-24.32-67.38-26.53,12.51,80.09,6.42,339.61,6.45,401C1664.23,713.59,1679,714,1695,708.68Z" transform="translate(-1490.46 -118.32)"/><path class="cls-15" d="M1695.49,610.75a20.55,20.55,0,0,0-4.51,3.4h0a20.18,20.18,0,0,0-5.94,14.3v11.83h-34.84c-.33,29.29-.63,52.92-.62,66.64,14.67,6.67,29.41,7.09,45.41,1.76C1697.43,678.79,1696.86,645.56,1695.49,610.75Z" transform="translate(-1490.46 -118.32)"/><rect class="cls-16" x="46.83" y="470.18" width="30.02" height="6.05"/><path class="cls-6" d="M1563.35,362.67c-10,36.05-21.95,76.67-31.94,112.71-13.05-1.76-27.25,3.45-40.29,1.69,3.14-26.9,11.4-79.32,14.54-106.22,5.16-44.27,25.65-54.78,40.55-47C1558.54,330.36,1566.56,350.75,1563.35,362.67Z" transform="translate(-1490.46 -118.32)"/><path class="cls-5" d="M1506,544.78l24.54-5.25c-1.69,11.88-3.31,19-2.54,28.16,3.92,1.11,8.46,6.64,10.52,13.94l7,23.92c1.58,5.6-7,8.1-8.62,2.32l-2.28-7.3h0a11.06,11.06,0,0,0-2.55-4.77c-1.66-.55-3.55,1.93-4.14,6.19l-.33,2.43.26,6.54,1.58,9.89,3.23,3.5a4.14,4.14,0,0,1-.24,5.86h0a3.9,3.9,0,0,1-1.24.79l.51,2.92a4.13,4.13,0,0,1-3.24,4.88h0a4.18,4.18,0,0,1-4.89-3.23l-.59-3.33a4.22,4.22,0,0,1-2.15-1.9l-7.47-11.22-7.15-8.46.22,0C1497.33,599.28,1507.62,565.13,1506,544.78Z" transform="translate(-1490.46 -118.32)"/><path class="cls-4" d="M1529.57,621l3.08,3.34a4.12,4.12,0,0,1-.24,5.85h0a4,4,0,0,1-1.1.73c-.57-2.85-1.2-6.54-1.74-9.92Zm-6.86,11.11a4.21,4.21,0,0,1-1.9-1.79l-7.47-11.22-6.44-7.61c10.6-2.18,12.1-7.28,12.1-7.28S1522,625.84,1522.71,632.13Z" transform="translate(-1490.46 -118.32)"/><path class="cls-3" d="M1529.56,502.55c.41,26.19.88,35.87,1.29,62.06-8.85,4.9-18.85,7.16-27.61,3.2-1.93-20-1.81-30.06-3.75-50C1494.35,464.68,1528.6,482.56,1529.56,502.55Z" transform="translate(-1490.46 -118.32)"/><path class="cls-6" d="M1531.51,474.62c.54,33.43,3,69,3.32,83.33-10.31,6.59-24.46,6.14-36.13,3.07-4.48-16-8.43-43.69-8.23-69.63C1491,423.28,1530.29,449.1,1531.51,474.62Z" transform="translate(-1490.46 -118.32)"/><path class="cls-17" d="M1538.1,453.32c-1.62-18.67-1.78-81.72-1.78-87.41C1529.1,400.37,1530,434.65,1538.1,453.32Z" transform="translate(-1490.46 -118.32)"/><path class="cls-17" d="M1586.94,305.89c-9.09.47-21,1.85-27,4.19L1575,352l-17.49,12,21.8,55.79C1580.31,406.61,1579.8,369.69,1586.94,305.89Z" transform="translate(-1490.46 -118.32)"/><path class="cls-17" d="M1642.45,305.89c9.09.47,21,1.85,27,4.19L1654.41,352l17.49,12-21.8,55.79C1649.09,406.61,1649.6,369.69,1642.45,305.89Z" transform="translate(-1490.46 -118.32)"/><rect class="cls-18" x="1654.54" y="407.55" width="32.23" height="20.3" transform="translate(-1541 354.82) rotate(-15.88)"/><rect class="cls-19" x="1665.36" y="401.89" width="5.04" height="12.09" transform="translate(-1538.43 353.64) rotate(-15.88)"/><rect class="cls-20" x="1677.06" y="409.71" width="3.32" height="11.54" transform="translate(-1540.08 356.97) rotate(-15.88)"/><rect class="cls-20" x="1672.96" y="413.81" width="11.54" height="3.33" transform="translate(-1540.08 356.84) rotate(-15.88)"/><rect class="cls-20" x="1656.72" y="414.53" width="8.63" height="0.95" transform="translate(-1540.63 352.04) rotate(-15.88)"/><rect class="cls-20" x="1657.36" y="416.5" width="12.83" height="0.95" transform="matrix(0.96, -0.27, 0.27, 0.96, -1541.06, 352.85)"/><rect class="cls-20" x="1658.08" y="419.05" width="12.84" height="0.95" transform="translate(-1541.73 353.14) rotate(-15.88)"/><rect class="cls-20" x="1658.81" y="421.59" width="12.84" height="0.95" transform="translate(-1542.4 353.44) rotate(-15.88)"/><rect class="cls-20" x="1659.53" y="424.14" width="12.83" height="0.95" transform="translate(-1543.07 353.74) rotate(-15.88)"/><path class="cls-2" d="M1749,613.14h-38.22a20.14,20.14,0,0,0-14.26,5.94h0a20.2,20.2,0,0,0-5.94,14.3V693.3a20.26,20.26,0,0,0,20.23,20.23H1749a20.17,20.17,0,0,0,14.29-5.93v0a20.14,20.14,0,0,0,5.94-14.27V633.38a20.1,20.1,0,0,0-5.94-14.27l0,0a20.18,20.18,0,0,0-14.27-5.94Zm-38.22,14.21H1749a6.05,6.05,0,0,1,4.25,1.75l0,0a6,6,0,0,1,1.75,4.25V693.3a6,6,0,0,1-1.76,4.26h0a6,6,0,0,1-4.25,1.77h-38.22a6.06,6.06,0,0,1-6-6V633.38a6,6,0,0,1,1.78-4.25l0,0A6.05,6.05,0,0,1,1710.79,627.35Z" transform="translate(-1490.46 -118.32)"/><rect class="cls-20" x="145.41" y="526.9" width="188.06" height="126.94"/><rect class="cls-21" x="225.1" y="547.37" width="28.67" height="86"/><rect class="cls-21" x="196.44" y="576.03" width="86" height="28.67"/><path class="cls-5" d="M1752.27,613.59c-2.59-18.78-5.53-36.8-8.64-55.64L1719,560.47c.91,5.49,3.52,23.47,3.54,28.06-3.08,1.29-5.11,6.19-5.62,9l-3.1,15.69h8.59a2.43,2.43,0,0,1,.26-.65c1.41-1.58,2.52-.5,2.85.63,1.12,3.86,2.21,8.46-.64,13.88-.8,1.52,5.85,2.68,8.82.65,1.14-.78,4.51,2.87,8.4-.25.86-.69,5,1.94,6.84,1.08C1752.59,626.84,1753.49,622.39,1752.27,613.59Z" transform="translate(-1490.46 -118.32)"/><path class="cls-3" d="M1746.78,517.43c.42,26.18.53,37.14,1,63.33a30.87,30.87,0,0,1-27.84,1.11c-1.94-20-1.24-29.25-3.17-49.22C1711.58,479.55,1745.82,497.43,1746.78,517.43Z" transform="translate(-1490.46 -118.32)"/><path class="cls-6" d="M1707.53,483.63c3.27,34.27,6,79.1,7.63,89.46,11.34,6.35,26.82,3.51,37.21-1.28,3.38-9.74-5.45-58.53-5.81-86.61C1745.7,417.1,1704,461.09,1707.53,483.63Z" transform="translate(-1490.46 -118.32)"/><rect class="cls-16" x="171.62" y="470.18" width="30.02" height="6.05"/><path class="cls-22" d="M1661,148.79c-36.34,15.7-86.87,19.91-113.08-6.4C1568.83,149.85,1585,164.49,1661,148.79Z" transform="translate(-1490.46 -118.32)"/><path class="cls-17" d="M1690.78,453.32c1.62-18.67,1.77-81.72,1.77-87.41C1699.78,400.37,1698.9,434.65,1690.78,453.32Z" transform="translate(-1490.46 -118.32)"/></svg>