<svg xmlns="http://www.w3.org/2000/svg" width="94.006" height="74.4" viewBox="0 0 94.006 74.4">
  <g id="lifeline-in-a-heart-outline" transform="translate(0 -9.803)">
    <path id="Path_70" data-name="Path 70" d="M94.006,35.071a24.627,24.627,0,0,1-1.288,7.845C88.725,60.983,54.2,82.839,52.728,83.769a2.834,2.834,0,0,1-1.5.434,2.711,2.711,0,0,1-1.505-.434A191.62,191.62,0,0,1,29.738,68.935a2.8,2.8,0,0,1,3.638-4.267,193.276,193.276,0,0,0,17.867,13.4c10.37-6.761,33.263-23.962,36.069-36.648a19.993,19.993,0,0,0,1.064-6.348A19.777,19.777,0,0,0,78.141,17.758a20.167,20.167,0,0,0-24.755,4.7,2.9,2.9,0,0,1-4.32,0A20.193,20.193,0,0,0,24.312,17.75,19.769,19.769,0,0,0,14.057,35.066a19.519,19.519,0,0,0,1,6.079,21.9,21.9,0,0,0,2.225,5.536H33.634l5.617-12.909a2.8,2.8,0,0,1,5.288.471l4.135,17.482,5.349-8.771a2.792,2.792,0,0,1,2.391-1.342H66.565a2.8,2.8,0,0,1,0,5.605H57.987L49.929,60.453A2.794,2.794,0,0,1,47.546,61.8a2.907,2.907,0,0,1-.438-.033,2.807,2.807,0,0,1-2.289-2.118L41.04,43.726,38.054,50.6a2.791,2.791,0,0,1-2.572,1.685H2.8a2.8,2.8,0,0,1,0-5.6h8.217a24.345,24.345,0,0,1-1.346-4.047,23.62,23.62,0,0,1-1.2-7.568A25.368,25.368,0,0,1,21.615,12.84a25.93,25.93,0,0,1,29.626,3.737A25.9,25.9,0,0,1,80.853,12.84,25.389,25.389,0,0,1,94.006,35.071Z" fill="#fff"/>
  </g>
</svg>
