<svg xmlns="http://www.w3.org/2000/svg" width="73.965" height="75.205" viewBox="0 0 73.965 75.205">
  <g id="planet" transform="translate(-2.339 2)">
    <g id="Group_23" data-name="Group 23" transform="translate(3.339 -1)">
      <g id="Group_22" data-name="Group 22" transform="translate(0 0)">
        <path id="Path_15" data-name="Path 15" d="M455.834,450.254a1.241,1.241,0,1,0,1.241,1.241A1.172,1.172,0,0,0,455.834,450.254Z" transform="translate(-390.073 -385.734)" fill="#40407a" stroke="#40407a" stroke-width="2"/>
        <path id="Path_16" data-name="Path 16" d="M490.546,77.1a1.241,1.241,0,1,0,1.241,1.241A1.172,1.172,0,0,0,490.546,77.1Z" transform="translate(-419.822 -65.935)" fill="#40407a" stroke="#40407a" stroke-width="2"/>
        <path id="Path_17" data-name="Path 17" d="M56.648,484.966a1.241,1.241,0,1,0,1.241,1.241A1.172,1.172,0,0,0,56.648,484.966Z" transform="translate(-47.962 -415.483)" fill="#40407a" stroke="#40407a" stroke-width="2"/>
        <path id="Path_18" data-name="Path 18" d="M90.17,25.041A8.7,8.7,0,0,0,74.6,19.718,33.5,33.5,0,1,0,62.873,84.6a34.384,34.384,0,0,0,6.94-.75,6.218,6.218,0,0,0,11.672-2.972,6.374,6.374,0,0,0-.252-1.782,33.04,33.04,0,0,0,15.142-28A34.4,34.4,0,0,0,88.8,29.762,8.7,8.7,0,0,0,90.17,25.041Zm-8.685-6.2a6.144,6.144,0,0,1,6.2,6.2,6.235,6.235,0,0,1-1.01,3.432l-.479.539a6.057,6.057,0,0,1-2.716,1.913l-.039.013c-.064.021-.129.04-.194.059s-.116.034-.175.049l-.067.016a6.339,6.339,0,0,1-.881.151H82.12q-.153.015-.308.023c-.109.005-.218.008-.328.008a6.2,6.2,0,1,1,0-12.408ZM75.281,84.6a3.659,3.659,0,0,1-3.254-1.871l-.22-.735a3.622,3.622,0,0,1-.248-1.117,3.81,3.81,0,0,1,.439-1.8q.084-.159.183-.307.049-.074.1-.145.106-.143.224-.274a3.582,3.582,0,0,1,.82-.672,3.673,3.673,0,0,1,.827-.364,3.911,3.911,0,0,1,1.127-.163c.078,0,.155,0,.232.007l.121.009.069.007a3.723,3.723,0,0,1-.422,7.422Zm4.768-7.729a6.225,6.225,0,0,0-10.972,4.006v.62a33.928,33.928,0,0,1-6.2.62,30.861,30.861,0,0,1-16.828-4.963H64.114a1.241,1.241,0,0,0,0-2.482H43.02a1.521,1.521,0,0,0-.271.024,31.242,31.242,0,0,1-3.7-3.746H54.063a1.241,1.241,0,0,0,0-2.482H37.175a30.841,30.841,0,0,1-4.924-12.408h4.193a1.241,1.241,0,1,0,0-2.482H31.953q-.1-1.228-.1-2.482t.1-2.482H44.261a1.241,1.241,0,1,0,0-2.482H32.251a30.8,30.8,0,0,1,.838-3.722H56.3a1.243,1.243,0,0,0,1.241-1.241A1.172,1.172,0,0,0,56.3,39.931H33.929A31.1,31.1,0,0,1,42.75,27.5a1.533,1.533,0,0,0,.271.024H58.654a1.241,1.241,0,1,0,0-2.482H46.045a30.861,30.861,0,0,1,16.828-4.963,30.467,30.467,0,0,1,10.494,1.842,8.785,8.785,0,0,0-.568,3.121H66.6a1.241,1.241,0,1,0,0,2.482h6.558a8.623,8.623,0,0,0,8.331,6.2c.141,0,.28,0,.418-.01.066,0,.132-.009.2-.013s.133-.009.2-.015c.1-.009.2-.021.3-.033l.07-.009A8.637,8.637,0,0,0,86.717,32c.118-.084.235-.169.351-.258a29.942,29.942,0,0,1,4.76,8.189H64.486a1.241,1.241,0,1,0,0,2.482H92.664A31.169,31.169,0,0,1,93.892,51.1c0,.834-.036,1.661-.1,2.482H79a1.241,1.241,0,1,0,0,2.482H93.5a30.586,30.586,0,0,1-4.915,12.408H61.88a1.241,1.241,0,1,0,0,2.482H86.7A31.007,31.007,0,0,1,80.048,76.869Z" transform="translate(-25.65 -13.874)" fill="#40407a" stroke="#40407a" stroke-width="2"/>
        <path id="Path_19" data-name="Path 19" d="M8.3,10.167a1.172,1.172,0,0,0,1.241,1.241,1.172,1.172,0,0,0,1.241-1.241,3.656,3.656,0,0,1,3.722-3.722A1.172,1.172,0,0,0,15.747,5.2a1.172,1.172,0,0,0-1.241-1.241A3.656,3.656,0,0,1,10.784.241,1.172,1.172,0,0,0,9.543-1,1.172,1.172,0,0,0,8.3.241,3.656,3.656,0,0,1,4.58,3.963,1.172,1.172,0,0,0,3.339,5.2,1.172,1.172,0,0,0,4.58,6.445,3.656,3.656,0,0,1,8.3,10.167Zm1.241-6.2A5.881,5.881,0,0,0,10.784,5.2,5.881,5.881,0,0,0,9.543,6.445,5.881,5.881,0,0,0,8.3,5.2,5.887,5.887,0,0,0,9.543,3.963Z" transform="translate(-3.339 1)" fill="#40407a" stroke="#40407a" stroke-width="2"/>
        <path id="Path_20" data-name="Path 20" d="M159.564,277.936a1.172,1.172,0,0,0-1.241-1.241H134.749a1.241,1.241,0,1,0,0,2.482h23.575A1.172,1.172,0,0,0,159.564,277.936Z" transform="translate(-114.897 -236.99)" fill="#40407a" stroke="#40407a" stroke-width="2"/>
        <path id="Path_21" data-name="Path 21" d="M214.114,330a1.172,1.172,0,0,0-1.241-1.241H186.817a1.241,1.241,0,0,0,0,2.482h26.056A1.172,1.172,0,0,0,214.114,330Z" transform="translate(-159.52 -281.614)" fill="#40407a" stroke="#40407a" stroke-width="2"/>
        <path id="Path_22" data-name="Path 22" d="M204.173,227.109h12.408a1.241,1.241,0,1,0,0-2.482H204.173a1.241,1.241,0,1,0,0,2.482Z" transform="translate(-174.394 -192.367)" fill="#40407a" stroke="#40407a" stroke-width="2"/>
        <path id="Path_23" data-name="Path 23" d="M209.143,130.41a1.172,1.172,0,0,0-1.241-1.241H195.495a1.241,1.241,0,1,0,0,2.482H207.9A1.172,1.172,0,0,0,209.143,130.41Z" transform="translate(-166.957 -110.558)" fill="#40407a" stroke="#40407a" stroke-width="2"/>
      </g>
    </g>
  </g>
</svg>
