<svg id="Camada_1" data-name="Camada 1" xmlns="http://www.w3.org/2000/svg" viewBox="0 0 81.63 79.06"><defs><style>.cls-1{fill:none;stroke: #fff;stroke-miterlimit:10;stroke-width:4px;}</style></defs><title>medSpace-logo</title><path class="cls-1" d="M299.2,730.91c.62,6.16-1.09,9.53-1.91,10.85a11.46,11.46,0,0,1-.69,1,16.29,16.29,0,0,1-7.49,4.74c-1.19.34-4,.43-9.68.62-3.86.13-5.78.11-6.21.11-1.73,0-2.65,0-4.76,0a1.33,1.33,0,0,0-1.22,1.26l-.1,12.37a1.27,1.27,0,0,0,1.29,1.28l20.45-.16H289c2.48-.17,9.15-.88,13.51-4.61a29.49,29.49,0,0,0,2.82-2.82,33.54,33.54,0,0,0,4.15-6,27.76,27.76,0,0,0,2.31-4.78,23.77,23.77,0,0,0,1.26-6.92c.37-6.8.22-15.9.15-19.28a1.26,1.26,0,0,0-1.28-1.23l-11.86.09a.93.93,0,0,0-.69.17.82.82,0,0,0-.23.58C299.07,718.77,299.11,723.91,299.2,730.91Z" transform="translate(-265.14 -715.32)"/><path class="cls-1" d="M312.72,778.79c-.62-6.16,1.09-9.52,1.9-10.84a9.8,9.8,0,0,1,.7-1,16.26,16.26,0,0,1,7.48-4.75c1.2-.34,4-.43,9.69-.61,3.86-.13,5.78-.12,6.2-.12,1.73,0,2.65.06,4.77,0a1.34,1.34,0,0,0,1.22-1.26l.09-12.37a1.26,1.26,0,0,0-1.28-1.28l-20.45.16H323c-2.48.17-9.15.88-13.51,4.6a30,30,0,0,0-2.82,2.83,33,33,0,0,0-4.15,6,27.86,27.86,0,0,0-2.31,4.79,23.73,23.73,0,0,0-1.27,6.91c-.37,6.81-.22,15.9-.14,19.29a1.24,1.24,0,0,0,1.27,1.22l11.86-.09a1,1,0,0,0,.7-.17.79.79,0,0,0,.22-.57C312.85,790.93,312.81,785.79,312.72,778.79Z" transform="translate(-265.14 -715.32)"/></svg>